<?xml version="1.0" encoding="UTF-8"?>
<svg id="Layer_1" xmlns="http://www.w3.org/2000/svg" version="1.1" viewBox="0 0 700 400">
  <!-- Generator: Adobe Illustrator 29.8.2, SVG Export Plug-In . SVG Version: 2.1.1 Build 3)  -->
  <defs>
    <style>
      .st0 {
        fill: #873ccc;
      }

      .st1 {
        fill: #fff;
      }

      .st2 {
        fill: #6626aa;
      }

      .st3 {
        fill: #ccc;
      }
    </style>
  </defs>
  <rect id="background" y="0" width="700" height="400"/>
  <g>
    <path class="st1" d="M349.9,68.8c10.34-.62,17.71,9.28,13.5,19.02-.55,1.27-1.3,2.26-2.11,3.39,1.97,4.47,7.31,13.67,10.7,17.14,5.28-1.61,10.52-5.45,14.76-8.95-.09-5.84,1.67-10.44,7.11-13.4,2.79-1.52,6.44-1.97,9.49-.98,3.34,1.08,6.1,3.46,7.67,6.6,3.69,7.4-.48,14.68-7.45,18.03-1.11,2.78-2.76,9.22-3.62,12.32l-6.66,24.1c2.14.18,4.19.34,6.31.72,12.65,2.17,23.86,9.39,31.08,20,8.96,12.97,10.59,28.25,7.84,43.43,3.76,1.42,6.83,3.81,8.68,7.43,1.18,2.34,1.7,4.95,1.51,7.57-.13,2.01-.66,4-1.27,5.92-3.27,10.4-5.8,21.19-9.82,31.33-5.39,13.58-13.75,26.27-24.76,35.94-6.31,5.54-13.46,10.32-20.3,15.22-4.43,3.21-8.91,6.36-13.43,9.45-5.2,3.5-11,7.3-17.36,8-9.42,1.03-20.31-2.6-29.23-5.56-2.6-.76-5.16-1.65-7.77-2.41-4.94-1.44-10.36-3.63-15.56-3.56-5.42.08-8.87,6.11-14.52,4.92-3.04-.64-5.6-2.71-8.12-4.42-12.82-9.44-24.06-21.27-32.71-34.63-2.81-4.34-3.86-7.81-.43-12.15,2.76-3.5,5.99-6.84,9.13-10,3.73-3.75,7.53-7.82,11.53-11.25,2.56-2.2,5.27-4.22,8.11-6.04-11.34-13.93-18.15-27.6-19.23-45.77-1.69-28.59,17.44-52.53,46.63-53.96-3.61-11.69-6.41-25.28-10.4-36.56-5.55-2.51-9.2-7.69-8.44-13.92.39-3.39,2.12-6.47,4.8-8.58,2.55-1.99,5.57-2.98,8.8-2.56,3.65.46,6.96,2.37,9.18,5.3,2.06,2.68,2.96,6.08,2.5,9.43,4.82,4.31,8.78,6.58,14.69,8.98,3.56-3.75,8.71-12.31,10.8-17.11-1.69-2.19-2.87-4.09-3.41-6.86-.64-3.31.08-6.73,1.99-9.5,2.4-3.51,5.71-5.24,9.8-6.02Z"/>
    <path d="M306.06,152.39c1.39-.16,3.27-.13,4.67-.09,14,.48,26.69,7.79,35.85,18.08,1.55,1.74,3.05,3.57,4.65,5.29,1.37-1.4,3.15-3.71,4.59-5.3,4.24-4.75,9.21-8.79,14.72-11.99,32.44-18.67,66.61,7.97,63.41,43.36-.48,5.29-1.25,8.85-2.69,13.95,6.96-1.4,13.04,2.63,11.76,10.38-.34,2.08-1.27,4.48-1.86,6.56l-3.87,13.46c-11.39,38.54-24.95,46.75-56.13,68.85-4.97,3.45-10.88,7.96-16.52,9.98-6.71,2.4-13.94.28-20.5-1.6-8.59-2.47-17.16-5.45-25.77-7.87-6.17-1.74-11.94-2.28-17.51,1.44-1.01.67-2.21,1.42-3.33,1.85-1.34.51-2.4.13-3.58-.55-2.95-1.63-5.91-3.82-8.53-5.94-9.19-7.46-17.32-16.14-24.17-25.8-4.02-5.62-6.41-7.11-.89-12.75,7.58-7.72,14.63-16.48,24.04-22.11,2.38-1.43,5.43-2.39,8.09-3.19-12.67-12.81-21.35-26.61-23.5-44.89-1.51-12.82,1.53-26.07,9.76-36.24,6.75-8.41,16.59-13.78,27.32-14.89Z"/>
    <path class="st0" d="M304.17,248.01c-11.82-9.28-21.98-22.27-26.78-36.91-6.85-20.9.76-44.75,23.12-51.96,14.92-4.81,32.03,3.66,42.13,14.63,1.63,1.77,7.05,8.77,8.6,9.61,1.35-.06,4.03-4.1,5.02-5.33,1.87-2.32,3.87-4.52,6-6.6,2.86-2.78,6.04-5.22,9.45-7.27,7.25-4.43,17.15-7.71,25.65-5.66,3.7.05,9.21,2.53,12.33,4.42,11.91,7.2,18.04,19.72,17.84,33.45-.08,5.01-.86,9.98-2.33,14.76-4.91,15.75-17.66,32.71-29.17,44.44-.89.9-2.09,1.91-3.17,2.59-1.46-.42-3.36-1.01-4.76-1.62,6.4-6.24,15.39-18.68,17.26-27.37-7.66,8.15-15.36,16.15-24.1,23.18-2.81,2.26-5.98,4.97-9.27,6.44-9.13,4.08-19.25,3.17-28.48.33-4.83-1.69-9.86-3.98-14.74-5.8-8.96-3.34-15.31-4.38-24.6-5.32Z"/>
    <path class="st2" d="M397.37,158.51c3.7.05,9.21,2.53,12.33,4.42,11.91,7.2,18.04,19.72,17.84,33.45-.08,5.01-.86,9.98-2.33,14.76-4.91,15.75-17.66,32.71-29.17,44.44-.89.9-2.09,1.91-3.17,2.59-1.46-.42-3.36-1.01-4.76-1.62,6.4-6.24,15.39-18.68,17.26-27.37-7.66,8.15-15.36,16.15-24.1,23.18-2.81,2.26-5.98,4.97-9.27,6.44-9.13,4.08-19.25,3.17-28.48.33,12.42-3.22,22.39-9.62,32.41-17.36,19.55-15.1,41.27-37.84,35.82-64.83-1.21-6.02-4.82-11.88-9.75-15.56-1.41-1.05-3.12-1.9-4.63-2.86Z"/>
    <path class="st1" d="M302.74,167.91c2.46-.37,6.13.45,7.02,3.09,1.12,3.31-3.43,4.98-5.7,6.5-1.44.97-2.79,2.08-4.03,3.3-3.5,3.44-5.3,6.98-6.58,11.73-.47,1.75-.77,3.63-1.6,5.22-3.1,3.38-6.1-2.49-6.5-5.41-1.36-9.91,7.07-23.09,17.4-24.43Z"/>
    <path class="st1" d="M399.86,267.63c9.88-9.42,14.06-17.51,19.79-29.87,1.97-3.84,3.68-8.22,6.08-11.78,1.95-2.9,7.83-5.89,10.94-3.4,1.11,2.08-.07,4.99-.74,7.22-6.48,21.82-12.02,42.27-29.43,58.27-6.38,5.87-12.59,10.19-19.74,15.11-4.11,2.81-8.21,5.65-12.28,8.51-10.11,7.04-13.02,9.76-25.47,6.47-2.82-.75-5.63-1.54-8.42-2.39-4.94-1.52-9.87-3.07-14.79-4.65-9.41-2.93-17.23-5.59-26.51-.6-.97.52-1.93,1.05-2.9,1.59-2.39-1.25-6.7-4.24-8.7-6.18-1.4-1.07-3.26-2.83-4.58-4.04-7.45-6.82-13.59-14.3-19.26-22.63,4.9-5.56,14.52-15.89,20.42-20,2.39-1.69,5-3.04,7.77-4.01,4.24-1.49,8.46-1.56,12.9-1.3,8.21.48,16.13,2.54,23.77,5.49,8.69,3.35,16.42,7.25,25.96,7.75,4.67.24,9.3-.15,13.89-1.1,6.05-1.25,13.42-4.48,19.62-3,.72.17,1.42.42,2.09.75,2.1,1.06,2.97,2.45,3.69,4.56.25,3.42-1.43,5.32-4.44,6.72-3.84,1.69-7.68,3.26-11.54,4.92-3.99,1.66-7.85,3.71-11.91,5.19-6.53,2.38-13.7,1.02-20.48.78-3.09-.11-5.91-.05-9,0-1.35.08-6.51.75-7.24,1.99.08.31.04.35.3.56,1.71,1.37,22.79,3.96,26.24,4.25,1.64.14,3.32.18,4.96.03,1.73-.16,3.44-.53,5.08-1.11,3.24-1.14,6.47-2.96,9.77-4.42,7.39-3.25,16.68-5.26,22.25-11.41,2.15-2.37,2.21-5.32,1.91-8.27Z"/>
    <path class="st3" d="M436.67,222.58c1.11,2.08-.07,4.99-.74,7.22-6.48,21.82-12.02,42.27-29.43,58.27-6.38,5.87-12.59,10.19-19.74,15.11-4.11,2.81-8.21,5.65-12.28,8.51-10.11,7.04-13.02,9.76-25.47,6.47-2.82-.75-5.63-1.54-8.42-2.39-4.94-1.52-9.87-3.07-14.79-4.65-9.41-2.93-17.23-5.59-26.51-.6-.97.52-1.93,1.05-2.9,1.59-2.39-1.25-6.7-4.24-8.7-6.18,3.44-2.11,11.36-6.35,15.33-7.14,13.25-2.25,28.64,3.67,41.3,7.4,11.11,3.83,20.11,4.4,30.3-2.55,7.75-5.29,16.37-10.36,23.91-16.23,10.96-8.41,19.62-19.44,25.18-32.08,3.19-7.27,5.05-14.99,8.05-22.33,1.34-3.29,2.81-7.55,4.9-10.42Z"/>
    <path class="st3" d="M393.96,268.4c.25,3.42-1.43,5.32-4.44,6.72-3.84,1.69-7.68,3.26-11.54,4.92-3.99,1.66-7.85,3.71-11.91,5.19-6.53,2.38-13.7,1.02-20.48.78-3.09-.11-5.91-.05-9,0,.86-.77,15.97-1.96,18.83-2.26,10.52-1.01,19.43-5.88,28.89-10.13,2.48-1.12,9.19-2.72,9.66-5.24Z"/>
    <path d="M350.65,74.7c.78-.05,1.47,0,2.23.18,2.12.53,3.92,1.9,5,3.79.98,1.68,1.28,3.6.66,5.44-.92,2.73-1.96,3.56-4.28,4.81,1.36,4.86,11.19,24.68,16.62,25.22,6.01.6,17.58-8.61,22.66-12.53-1.1-2.5-1.47-5.05.02-7.52,1.05-1.69,2.73-2.89,4.68-3.32,1.85-.41,3.79-.03,5.36,1.05,1.46.99,2.44,2.56,2.68,4.31.69,4.97-2.49,7.47-7.11,7.96l-6.59,23.42c-1.84,6.76-3.91,15.13-6.13,21.67-2.46.79-5.65,1.16-8.64,2.19-10.73,3.68-18.16,9.09-26.25,16.7-.1.04-.47.07-.52.02-8.67-7.74-17.57-14.73-29.17-17.53-1.76-.43-3.52-.82-5.28-1.23-.84-2.11-1.61-4.41-2.23-6.59-3.64-12.78-7.04-25.6-10.97-38.29-12.33-2.06-6.4-17.21,2.59-13.21,1.79.78,3.18,2.27,3.85,4.1.78,2.2.42,4.03-.57,6.04,4.02,3.84,18.11,15.66,23.43,12.32,5.72-3.59,13.77-18.22,15.77-24.75-.36-.17-.72-.36-1.07-.55-1.83-1.02-3.16-2.75-3.65-4.79-.43-1.75-.12-3.6.86-5.11,1.39-2.18,3.61-3.3,6.06-3.8Z"/>
    <path class="st0" d="M351.42,95.18c2.79,6.44,10.31,21.34,17.02,24.29,3.04,1.34,6.5,0,9.37-1.21-.14,2.93-2.37,12.03-3.39,14.9-2.45-.43-5.7-.72-8.21-.95-11.65-1.04-24.53-1.14-36.12.36-.27-2.56-.72-5.1-1.34-7.6-.41-1.64-1.07-3.76-1.34-5.39,1.77.29,3.76.66,5.5.07,7.81-2.63,14.9-17.62,18.52-24.48Z"/>
    <path class="st0" d="M318.61,139.53c15.29-3.74,38.78-3.64,54.3-1.41-.41,1.67-.83,3.48-1.29,5.12-13.87-2.38-37.93-1.39-51.6,1.88-.43-1.87-.9-3.74-1.41-5.59Z"/>
    <path class="st0" d="M310.12,108.76c3.69,2.75,6.84,5.29,10.72,8.01,2.35,1.14,4.07,2,6.56,2.82.26,1.62.93,3.74,1.34,5.39.62,2.5,1.07,5.04,1.34,7.6-2.11.25-4.14.47-6.23.86-2.22.45-4.19.61-6.48,1.16-.53-2.62-1.74-6.63-2.46-9.28-1.48-5.55-3.08-11.08-4.79-16.56Z"/>
    <path class="st1" d="M320.84,116.77c2.35,1.14,4.07,2,6.56,2.82.26,1.62.93,3.74,1.34,5.39.62,2.5,1.07,5.04,1.34,7.6-2.11.25-4.14.47-6.23.86-.37-2.73-.71-5.17-1.23-7.87-.47-2.46-1.59-6.37-1.79-8.79Z"/>
    <path class="st2" d="M377.8,118.26c3.47-1.88,5.54-3.05,8.79-5.41,1.42-1.03,4.35-3.21,5.66-3.96-2.31,8.79-4.92,17.67-7.31,26.48-3.28-.98-7.14-1.66-10.54-2.2,1.02-2.88,3.25-11.98,3.39-14.9Z"/>
    <path class="st2" d="M372.91,138.12c3.29.43,7.59,1.29,10.76,2.25-.45,1.68-.92,3.63-1.44,5.26-3.36-1.07-7.13-1.83-10.61-2.39.47-1.64.88-3.45,1.29-5.12Z"/>
    <path class="st0" d="M350.53,79.25c1.65-.33,3.25.74,3.59,2.39.34,1.65-.72,3.26-2.36,3.61-1.66.35-3.29-.71-3.63-2.38-.34-1.66.74-3.29,2.41-3.62Z"/>
    <path class="st0" d="M399.29,95.67c1.08-.38,2.27.17,2.66,1.25.4,1.08-.15,2.27-1.22,2.67-1.09.41-2.3-.14-2.7-1.24-.4-1.09.17-2.3,1.26-2.69Z"/>
    <path class="st0" d="M302.16,95.67c1.07-.38,2.24.17,2.64,1.23.4,1.06-.13,2.25-1.18,2.66-.7.28-1.49.15-2.07-.32-.58-.47-.86-1.23-.74-1.97.13-.74.64-1.35,1.35-1.61Z"/>
  </g>
</svg>